# This file uses centimeters as units for non-parametric coordinates.

g default
v -0.377731 0.000000 0.474011
v -0.385807 0.000000 0.449158
v -0.398873 0.000000 0.426527
v -0.416359 0.000000 0.407107
v -0.437500 0.000000 0.391747
v -0.461373 0.000000 0.381118
v -0.486934 0.000000 0.375685
v -0.513066 0.000000 0.375685
v -0.538627 0.000000 0.381118
v -0.562500 0.000000 0.391747
v -0.583641 0.000000 0.407107
v -0.601127 0.000000 0.426527
v -0.614193 0.000000 0.449158
v -0.622268 0.000000 0.474011
v -0.625000 0.000000 0.500000
v -0.622268 0.000000 0.525989
v -0.614193 0.000000 0.550842
v -0.601127 0.000000 0.573473
v -0.583641 0.000000 0.592893
v -0.562500 0.000000 0.608253
v -0.538627 0.000000 0.618882
v -0.513066 0.000000 0.624315
v -0.486934 0.000000 0.624315
v -0.461373 0.000000 0.618882
v -0.437500 0.000000 0.608253
v -0.416359 0.000000 0.592893
v -0.398873 0.000000 0.573473
v -0.385807 0.000000 0.550842
v -0.377732 0.000000 0.525989
v -0.375000 0.000000 0.500000
v -0.323072 0.000000 0.462393
v -0.334757 0.000000 0.426429
v -0.353664 0.000000 0.393681
v -0.378967 0.000000 0.365579
v -0.409560 0.000000 0.343353
v -0.444105 0.000000 0.327972
v -0.481093 0.000000 0.320110
v -0.518907 0.000000 0.320110
v -0.555895 0.000000 0.327972
v -0.590440 0.000000 0.343353
v -0.621033 0.000000 0.365579
v -0.646336 0.000000 0.393681
v -0.665243 0.000000 0.426429
v -0.676928 0.000000 0.462393
v -0.680881 0.000000 0.500000
v -0.676928 0.000000 0.537607
v -0.665243 0.000000 0.573571
v -0.646336 0.000000 0.606319
v -0.621033 0.000000 0.634421
v -0.590440 0.000000 0.656647
v -0.555895 0.000000 0.672028
v -0.518907 0.000000 0.679890
v -0.481093 0.000000 0.679890
v -0.444105 0.000000 0.672028
v -0.409560 0.000000 0.656647
v -0.378967 0.000000 0.634421
v -0.353664 0.000000 0.606319
v -0.334757 0.000000 0.573571
v -0.323072 0.000000 0.537607
v -0.319119 0.000000 0.500000
v -0.255463 0.500000 0.448022
v -0.271613 0.500000 0.398316
v -0.297746 0.500000 0.353054
v -0.332717 0.500000 0.314214
v -0.375000 0.500000 0.283493
v -0.422746 0.500000 0.262236
v -0.473868 0.500000 0.251369
v -0.526132 0.500000 0.251369
v -0.577254 0.500000 0.262236
v -0.625000 0.500000 0.283493
v -0.667283 0.500000 0.314214
v -0.702254 0.500000 0.353054
v -0.728386 0.500000 0.398316
v -0.744537 0.500000 0.448022
v -0.750000 0.500000 0.500000
v -0.744537 0.500000 0.551978
v -0.728386 0.500000 0.601684
v -0.702254 0.500000 0.646946
v -0.667283 0.500000 0.685786
v -0.625000 0.500000 0.716506
v -0.577254 0.500000 0.737764
v -0.526132 0.500000 0.748631
v -0.473868 0.500000 0.748631
v -0.422746 0.500000 0.737764
v -0.375000 0.500000 0.716506
v -0.332717 0.500000 0.685786
v -0.297746 0.500000 0.646946
v -0.271614 0.500000 0.601684
v -0.255463 0.500000 0.551978
v -0.250000 0.500000 0.500000
v -0.281668 0.500000 0.453592
v -0.296088 0.500000 0.409213
v -0.319420 0.500000 0.368801
v -0.350644 0.500000 0.334123
v -0.388395 0.500000 0.306695
v -0.431024 0.500000 0.287715
v -0.476668 0.500000 0.278013
v -0.523332 0.500000 0.278013
v -0.568975 0.500000 0.287715
v -0.611605 0.500000 0.306695
v -0.649356 0.500000 0.334123
v -0.680580 0.500000 0.368801
v -0.703912 0.500000 0.409213
v -0.718332 0.500000 0.453592
v -0.723209 0.500000 0.500000
v -0.718332 0.500000 0.546408
v -0.703912 0.500000 0.590787
v -0.680580 0.500000 0.631199
v -0.649356 0.500000 0.665877
v -0.611605 0.500000 0.693305
v -0.568975 0.500000 0.712285
v -0.523332 0.500000 0.721987
v -0.476668 0.500000 0.721987
v -0.431025 0.500000 0.712285
v -0.388395 0.500000 0.693305
v -0.350644 0.500000 0.665877
v -0.319420 0.500000 0.631199
v -0.296088 0.500000 0.590787
v -0.281668 0.500000 0.546408
v -0.276791 0.500000 0.500000
v -0.500000 0.000000 0.500000
v -0.336326 0.062500 0.465217
v -0.347063 0.062500 0.431857
v -0.500000 0.062500 0.500000
v -0.364591 0.062500 0.401621
v -0.388036 0.062500 0.375547
v -0.416301 0.062500 0.354951
v -0.448290 0.062500 0.340708
v -0.482499 0.062500 0.333478
v -0.517501 0.062500 0.333478
v -0.551710 0.062500 0.340708
v -0.583699 0.062500 0.354951
v -0.611964 0.062500 0.375547
v -0.635409 0.062500 0.401621
v -0.652938 0.062500 0.431857
v -0.663674 0.062500 0.465217
v -0.667399 0.062500 0.500000
v -0.663674 0.062500 0.534783
v -0.652938 0.062500 0.568143
v -0.635409 0.062500 0.598379
v -0.611964 0.062500 0.624453
v -0.583699 0.062500 0.645049
v -0.551710 0.062500 0.659292
v -0.517501 0.062500 0.666522
v -0.482499 0.062500 0.666522
v -0.448290 0.062500 0.659292
v -0.416301 0.062500 0.645049
v -0.388036 0.062500 0.624453
v -0.364591 0.062500 0.598379
v -0.347063 0.062500 0.568143
v -0.336326 0.062500 0.534783
v -0.332601 0.062500 0.500000
vt 0.576418 0.140007
vt 0.571371 0.124474
vt 0.563205 0.110329
vt 0.552276 0.098192
vt 0.539063 0.088592
vt 0.524142 0.081949
vt 0.508166 0.078553
vt 0.491834 0.078553
vt 0.475858 0.081949
vt 0.460937 0.088592
vt 0.447724 0.098192
vt 0.436796 0.110329
vt 0.428629 0.124474
vt 0.423582 0.140007
vt 0.421875 0.156250
vt 0.423582 0.172493
vt 0.428629 0.188026
vt 0.436796 0.202171
vt 0.447724 0.214308
vt 0.460937 0.223908
vt 0.475858 0.230551
vt 0.491834 0.233947
vt 0.508166 0.233947
vt 0.524142 0.230551
vt 0.539062 0.223908
vt 0.552276 0.214308
vt 0.563204 0.202171
vt 0.571371 0.188026
vt 0.576418 0.172493
vt 0.578125 0.156250
vt 0.652836 0.123764
vt 0.642742 0.092697
vt 0.626409 0.064408
vt 0.604552 0.040134
vt 0.578125 0.020933
vt 0.548284 0.007647
vt 0.516333 0.000856
vt 0.483667 0.000856
vt 0.451716 0.007647
vt 0.421875 0.020933
vt 0.395448 0.040134
vt 0.373591 0.064408
vt 0.357258 0.092697
vt 0.347164 0.123764
vt 0.343750 0.156250
vt 0.347164 0.188736
vt 0.357258 0.219803
vt 0.373591 0.248091
vt 0.395448 0.272366
vt 0.421875 0.291567
vt 0.451716 0.304853
vt 0.483667 0.311644
vt 0.516333 0.311644
vt 0.548284 0.304853
vt 0.578125 0.291566
vt 0.604552 0.272366
vt 0.626409 0.248091
vt 0.642742 0.219803
vt 0.652836 0.188736
vt 0.656250 0.156250
vt 0.375000 0.312500
vt 0.383333 0.312500
vt 0.391667 0.312500
vt 0.400000 0.312500
vt 0.408333 0.312500
vt 0.416667 0.312500
vt 0.425000 0.312500
vt 0.433333 0.312500
vt 0.441667 0.312500
vt 0.450000 0.312500
vt 0.458333 0.312500
vt 0.466667 0.312500
vt 0.475000 0.312500
vt 0.483333 0.312500
vt 0.491667 0.312500
vt 0.500000 0.312500
vt 0.508333 0.312500
vt 0.516667 0.312500
vt 0.525000 0.312500
vt 0.533333 0.312500
vt 0.541667 0.312500
vt 0.550000 0.312500
vt 0.558333 0.312500
vt 0.566666 0.312500
vt 0.575000 0.312500
vt 0.583333 0.312500
vt 0.591666 0.312500
vt 0.600000 0.312500
vt 0.608333 0.312500
vt 0.616666 0.312500
vt 0.625000 0.312500
vt 0.375000 0.688440
vt 0.383333 0.688440
vt 0.391667 0.688440
vt 0.400000 0.688440
vt 0.408333 0.688440
vt 0.416667 0.688440
vt 0.425000 0.688440
vt 0.433333 0.688440
vt 0.441667 0.688440
vt 0.450000 0.688440
vt 0.458333 0.688440
vt 0.466667 0.688440
vt 0.475000 0.688440
vt 0.483333 0.688440
vt 0.491667 0.688440
vt 0.500000 0.688440
vt 0.508333 0.688440
vt 0.516667 0.688440
vt 0.525000 0.688440
vt 0.533333 0.688440
vt 0.541667 0.688440
vt 0.550000 0.688440
vt 0.558333 0.688440
vt 0.566666 0.688440
vt 0.575000 0.688440
vt 0.583333 0.688440
vt 0.591666 0.688440
vt 0.600000 0.688440
vt 0.608333 0.688440
vt 0.616666 0.688440
vt 0.625000 0.688440
vt 0.652836 0.811264
vt 0.642742 0.780197
vt 0.626409 0.751908
vt 0.604552 0.727634
vt 0.578125 0.708433
vt 0.548284 0.695147
vt 0.516333 0.688356
vt 0.483667 0.688356
vt 0.451716 0.695147
vt 0.421875 0.708433
vt 0.395448 0.727634
vt 0.373591 0.751908
vt 0.357258 0.780197
vt 0.347164 0.811264
vt 0.343750 0.843750
vt 0.347164 0.876236
vt 0.357258 0.907303
vt 0.373591 0.935591
vt 0.395448 0.959866
vt 0.421875 0.979066
vt 0.451716 0.992353
vt 0.483667 0.999144
vt 0.516333 0.999144
vt 0.548284 0.992353
vt 0.578125 0.979066
vt 0.604552 0.959866
vt 0.626409 0.935591
vt 0.642742 0.907303
vt 0.652836 0.876236
vt 0.656250 0.843750
vt 0.576418 0.827507
vt 0.571371 0.811974
vt 0.563205 0.797829
vt 0.552276 0.785692
vt 0.539063 0.776092
vt 0.524142 0.769449
vt 0.508166 0.766053
vt 0.491834 0.766053
vt 0.475858 0.769449
vt 0.460937 0.776092
vt 0.447724 0.785692
vt 0.436796 0.797829
vt 0.428629 0.811974
vt 0.423582 0.827507
vt 0.421875 0.843750
vt 0.423582 0.859993
vt 0.428629 0.875526
vt 0.436796 0.889671
vt 0.447724 0.901808
vt 0.460937 0.911408
vt 0.475858 0.918051
vt 0.491834 0.921447
vt 0.508166 0.921447
vt 0.524142 0.918051
vt 0.539062 0.911408
vt 0.552276 0.901808
vt 0.563204 0.889671
vt 0.571371 0.875526
vt 0.576418 0.859993
vt 0.578125 0.843750
vt 0.500000 0.150000
vt 0.500000 0.837500
vt 0.576418 0.859993
vt 0.571371 0.875526
vt 0.563204 0.889671
vt 0.552276 0.901808
vt 0.539062 0.911408
vt 0.524142 0.918051
vt 0.508166 0.921447
vt 0.491834 0.921447
vt 0.475858 0.918051
vt 0.460937 0.911408
vt 0.447724 0.901808
vt 0.436796 0.889671
vt 0.428629 0.875526
vt 0.423582 0.859993
vt 0.421875 0.843750
vt 0.423582 0.827507
vt 0.428629 0.811974
vt 0.436796 0.797829
vt 0.447724 0.785692
vt 0.460937 0.776092
vt 0.475858 0.769449
vt 0.491834 0.766053
vt 0.508166 0.766053
vt 0.524142 0.769449
vt 0.539063 0.776092
vt 0.552276 0.785692
vt 0.563205 0.797829
vt 0.571371 0.811974
vt 0.576418 0.827507
vt 0.578125 0.843750
vn 0.000000 -1.000000 0.000000
vn 0.000000 -1.000000 0.000000
vn 0.000000 -1.000000 0.000000
vn 0.000000 -1.000000 0.000000
vn 0.000000 -1.000000 0.000000
vn 0.000000 -1.000000 0.000000
vn 0.000000 -1.000000 0.000000
vn 0.000000 -1.000000 0.000000
vn 0.000000 -1.000000 0.000000
vn 0.000000 -1.000000 0.000000
vn 0.000000 -1.000000 0.000000
vn 0.000000 -1.000000 0.000000
vn 0.000000 -1.000000 0.000000
vn 0.000000 -1.000000 0.000000
vn 0.000000 -1.000000 0.000000
vn 0.000000 -1.000000 0.000000
vn 0.000000 -1.000000 0.000000
vn 0.000000 -1.000000 0.000000
vn 0.000000 -1.000000 0.000000
vn 0.000000 -1.000000 0.000000
vn 0.000000 -1.000000 0.000000
vn 0.000000 -1.000000 0.000000
vn 0.000000 -1.000000 0.000000
vn 0.000000 -1.000000 0.000000
vn 0.000000 -1.000000 0.000000
vn 0.000000 -1.000000 0.000000
vn 0.000000 -1.000000 0.000000
vn 0.000000 -1.000000 0.000000
vn 0.000000 -1.000000 0.000000
vn 0.000000 -1.000000 0.000000
vn 0.000000 -1.000000 0.000000
vn 0.000000 -1.000000 0.000000
vn 0.000000 -1.000000 0.000000
vn 0.000000 -1.000000 0.000000
vn 0.000000 -1.000000 0.000000
vn 0.000000 -1.000000 0.000000
vn 0.000000 -1.000000 0.000000
vn 0.000000 -1.000000 0.000000
vn 0.000000 -1.000000 0.000000
vn 0.000000 -1.000000 0.000000
vn 0.000000 -1.000000 0.000000
vn 0.000000 -1.000000 0.000000
vn 0.000000 -1.000000 0.000000
vn 0.000000 -1.000000 0.000000
vn 0.000000 -1.000000 0.000000
vn 0.000000 -1.000000 0.000000
vn 0.000000 -1.000000 0.000000
vn 0.000000 -1.000000 0.000000
vn 0.000000 -1.000000 0.000000
vn 0.000000 -1.000000 0.000000
vn 0.000000 -1.000000 0.000000
vn 0.000000 -1.000000 0.000000
vn 0.000000 -1.000000 0.000000
vn 0.000000 -1.000000 0.000000
vn 0.000000 -1.000000 0.000000
vn 0.000000 -1.000000 0.000000
vn 0.000000 -1.000000 0.000000
vn 0.000000 -1.000000 0.000000
vn 0.000000 -1.000000 0.000000
vn 0.000000 -1.000000 0.000000
vn 0.968934 -0.136937 -0.205951
vn 0.904940 -0.136937 -0.402905
vn 0.904940 -0.136937 -0.402905
vn 0.968934 -0.136937 -0.205951
vn 0.801396 -0.136936 -0.582248
vn 0.801396 -0.136936 -0.582248
vn 0.662827 -0.136936 -0.736144
vn 0.662827 -0.136936 -0.736144
vn 0.495290 -0.136937 -0.857867
vn 0.495290 -0.136937 -0.857867
vn 0.306106 -0.136936 -0.942097
vn 0.306106 -0.136936 -0.942097
vn 0.103544 -0.136936 -0.985153
vn 0.103544 -0.136936 -0.985153
vn -0.103544 -0.136937 -0.985153
vn -0.103544 -0.136937 -0.985153
vn -0.306106 -0.136937 -0.942097
vn -0.306106 -0.136937 -0.942097
vn -0.495290 -0.136936 -0.857867
vn -0.495290 -0.136936 -0.857867
vn -0.662827 -0.136936 -0.736144
vn -0.662827 -0.136936 -0.736144
vn -0.801396 -0.136937 -0.582248
vn -0.801396 -0.136937 -0.582248
vn -0.904940 -0.136936 -0.402905
vn -0.904940 -0.136936 -0.402905
vn -0.968933 -0.136936 -0.205953
vn -0.968933 -0.136936 -0.205953
vn -0.990580 -0.136937 0.000000
vn -0.990580 -0.136937 -0.000000
vn -0.968933 -0.136936 0.205953
vn -0.968933 -0.136936 0.205953
vn -0.904940 -0.136936 0.402905
vn -0.904940 -0.136937 0.402905
vn -0.801396 -0.136937 0.582248
vn -0.801396 -0.136937 0.582248
vn -0.662827 -0.136936 0.736144
vn -0.662827 -0.136936 0.736144
vn -0.495290 -0.136936 0.857867
vn -0.495290 -0.136936 0.857868
vn -0.306106 -0.136936 0.942097
vn -0.306106 -0.136936 0.942097
vn -0.103544 -0.136936 0.985153
vn -0.103544 -0.136936 0.985153
vn 0.103544 -0.136936 0.985153
vn 0.103544 -0.136936 0.985153
vn 0.306106 -0.136936 0.942097
vn 0.306106 -0.136936 0.942097
vn 0.495290 -0.136936 0.857867
vn 0.495290 -0.136936 0.857868
vn 0.662827 -0.136936 0.736144
vn 0.662827 -0.136936 0.736144
vn 0.801396 -0.136936 0.582248
vn 0.801396 -0.136936 0.582248
vn 0.904940 -0.136936 0.402905
vn 0.904940 -0.136936 0.402905
vn 0.968933 -0.136936 0.205953
vn 0.968933 -0.136936 0.205953
vn 0.990580 -0.136936 0.000002
vn 0.990580 -0.136936 0.000002
vn 0.000000 1.000000 0.000000
vn 0.000000 1.000000 0.000000
vn -0.894623 0.203085 0.398004
vn -0.957794 0.203075 0.203447
vn 0.000000 1.000000 0.000000
vn -0.791990 0.203037 0.575784
vn 0.000000 1.000000 0.000000
vn -0.655574 0.202999 0.727334
vn 0.000000 1.000000 0.000000
vn -0.489829 0.202939 0.847870
vn 0.000000 1.000000 0.000000
vn -0.302396 0.202919 0.931333
vn 0.000000 1.000000 0.000000
vn -0.102092 0.202948 0.973853
vn 0.000000 1.000000 0.000000
vn 0.102092 0.202948 0.973853
vn 0.000000 1.000000 0.000000
vn 0.302396 0.202918 0.931333
vn 0.000000 1.000000 0.000000
vn 0.489828 0.202939 0.847870
vn 0.000000 1.000000 0.000000
vn 0.655574 0.202999 0.727333
vn 0.000000 1.000000 0.000000
vn 0.791991 0.203037 0.575784
vn 0.000000 1.000000 0.000000
vn 0.894623 0.203085 0.398003
vn 0.000000 1.000000 0.000000
vn 0.957794 0.203074 0.203448
vn 0.000000 1.000000 0.000000
vn 0.979147 0.203154 0.000000
vn 0.000000 1.000000 0.000000
vn 0.957794 0.203074 -0.203448
vn 0.000000 1.000000 0.000000
vn 0.894623 0.203085 -0.398004
vn 0.000000 1.000000 0.000000
vn 0.791991 0.203037 -0.575784
vn 0.000000 1.000000 0.000000
vn 0.655574 0.202999 -0.727333
vn 0.000000 1.000000 0.000000
vn 0.489828 0.202939 -0.847870
vn 0.000000 1.000000 0.000000
vn 0.302397 0.202918 -0.931333
vn 0.000000 1.000000 0.000000
vn 0.102092 0.202948 -0.973853
vn 0.000000 1.000000 0.000000
vn -0.102093 0.202948 -0.973853
vn 0.000000 1.000000 0.000000
vn -0.302397 0.202918 -0.931333
vn 0.000000 1.000000 0.000000
vn -0.489828 0.202939 -0.847870
vn 0.000000 1.000000 0.000000
vn -0.655575 0.202999 -0.727333
vn 0.000000 1.000000 0.000000
vn -0.791991 0.203036 -0.575784
vn 0.000000 1.000000 0.000000
vn -0.894623 0.203085 -0.398004
vn 0.000000 1.000000 0.000000
vn -0.957794 0.203074 -0.203448
vn 0.000000 1.000000 0.000000
vn -0.979147 0.203154 -0.000001
vn 0.000000 -1.000000 0.000000
vn -0.942033 0.269326 0.200094
vn -0.880022 0.268839 0.391519
vn 0.000000 1.000000 0.000000
vn -0.778981 0.269177 0.566332
vn -0.644808 0.269103 0.715407
vn -0.481808 0.268902 0.833998
vn -0.297430 0.268893 0.916096
vn -0.100414 0.268999 0.957892
vn 0.100414 0.268999 0.957892
vn 0.297430 0.268893 0.916096
vn 0.481808 0.268902 0.833998
vn 0.644808 0.269103 0.715406
vn 0.778982 0.269177 0.566332
vn 0.880022 0.268839 0.391518
vn 0.942033 0.269326 0.200095
vn 0.963177 0.268868 0.000000
vn 0.942033 0.269326 -0.200095
vn 0.880022 0.268839 -0.391518
vn 0.778982 0.269177 -0.566332
vn 0.644808 0.269103 -0.715406
vn 0.481808 0.268902 -0.833998
vn 0.297431 0.268893 -0.916096
vn 0.100414 0.268999 -0.957892
vn -0.100415 0.268999 -0.957892
vn -0.297431 0.268893 -0.916096
vn -0.481807 0.268902 -0.833998
vn -0.644808 0.269103 -0.715406
vn -0.778981 0.269177 -0.566332
vn -0.880022 0.268839 -0.391519
vn -0.942033 0.269326 -0.200095
vn -0.963177 0.268868 -0.000001
s 1
g cup
f 1/1/1 2/2/2 32/32/3 31/31/4
f 2/2/2 3/3/5 33/33/6 32/32/3
f 3/3/5 4/4/7 34/34/8 33/33/6
f 4/4/7 5/5/9 35/35/10 34/34/8
f 5/5/9 6/6/11 36/36/12 35/35/10
f 6/6/11 7/7/13 37/37/14 36/36/12
f 7/7/13 8/8/15 38/38/16 37/37/14
f 8/8/15 9/9/17 39/39/18 38/38/16
f 9/9/17 10/10/19 40/40/20 39/39/18
f 10/10/19 11/11/21 41/41/22 40/40/20
f 11/11/21 12/12/23 42/42/24 41/41/22
f 12/12/23 13/13/25 43/43/26 42/42/24
f 13/13/25 14/14/27 44/44/28 43/43/26
f 14/14/27 15/15/29 45/45/30 44/44/28
f 15/15/29 16/16/31 46/46/32 45/45/30
f 16/16/31 17/17/33 47/47/34 46/46/32
f 17/17/33 18/18/35 48/48/36 47/47/34
f 18/18/35 19/19/37 49/49/38 48/48/36
f 19/19/37 20/20/39 50/50/40 49/49/38
f 20/20/39 21/21/41 51/51/42 50/50/40
f 21/21/41 22/22/43 52/52/44 51/51/42
f 22/22/43 23/23/45 53/53/46 52/52/44
f 23/23/45 24/24/47 54/54/48 53/53/46
f 24/24/47 25/25/49 55/55/50 54/54/48
f 25/25/49 26/26/51 56/56/52 55/55/50
f 26/26/51 27/27/53 57/57/54 56/56/52
f 27/27/53 28/28/55 58/58/56 57/57/54
f 28/28/55 29/29/57 59/59/58 58/58/56
f 29/29/57 30/30/59 60/60/60 59/59/58
f 30/30/59 1/1/1 31/31/4 60/60/60
s 2
f 31/61/61 32/62/62 62/93/63 61/92/64
f 32/62/62 33/63/65 63/94/66 62/93/63
f 33/63/65 34/64/67 64/95/68 63/94/66
f 34/64/67 35/65/69 65/96/70 64/95/68
f 35/65/69 36/66/71 66/97/72 65/96/70
f 36/66/71 37/67/73 67/98/74 66/97/72
f 37/67/73 38/68/75 68/99/76 67/98/74
f 38/68/75 39/69/77 69/100/78 68/99/76
f 39/69/77 40/70/79 70/101/80 69/100/78
f 40/70/79 41/71/81 71/102/82 70/101/80
f 41/71/81 42/72/83 72/103/84 71/102/82
f 42/72/83 43/73/85 73/104/86 72/103/84
f 43/73/85 44/74/87 74/105/88 73/104/86
f 44/74/87 45/75/89 75/106/90 74/105/88
f 45/75/89 46/76/91 76/107/92 75/106/90
f 46/76/91 47/77/93 77/108/94 76/107/92
f 47/77/93 48/78/95 78/109/96 77/108/94
f 48/78/95 49/79/97 79/110/98 78/109/96
f 49/79/97 50/80/99 80/111/100 79/110/98
f 50/80/99 51/81/101 81/112/102 80/111/100
f 51/81/101 52/82/103 82/113/104 81/112/102
f 52/82/103 53/83/105 83/114/106 82/113/104
f 53/83/105 54/84/107 84/115/108 83/114/106
f 54/84/107 55/85/109 85/116/110 84/115/108
f 55/85/109 56/86/111 86/117/112 85/116/110
f 56/86/111 57/87/113 87/118/114 86/117/112
f 57/87/113 58/88/115 88/119/116 87/118/114
f 58/88/115 59/89/117 89/120/118 88/119/116
f 59/89/117 60/90/119 90/121/120 89/120/118
f 60/90/119 31/91/61 61/122/64 90/121/120
s 3
f 61/151/121 62/150/122 92/180/123 91/181/124
f 62/150/122 63/149/125 93/179/126 92/180/123
f 63/149/125 64/148/127 94/178/128 93/179/126
f 64/148/127 65/147/129 95/177/130 94/178/128
f 65/147/129 66/146/131 96/176/132 95/177/130
f 66/146/131 67/145/133 97/175/134 96/176/132
f 67/145/133 68/144/135 98/174/136 97/175/134
f 68/144/135 69/143/137 99/173/138 98/174/136
f 69/143/137 70/142/139 100/172/140 99/173/138
f 70/142/139 71/141/141 101/171/142 100/172/140
f 71/141/141 72/140/143 102/170/144 101/171/142
f 72/140/143 73/139/145 103/169/146 102/170/144
f 73/139/145 74/138/147 104/168/148 103/169/146
f 74/138/147 75/137/149 105/167/150 104/168/148
f 75/137/149 76/136/151 106/166/152 105/167/150
f 76/136/151 77/135/153 107/165/154 106/166/152
f 77/135/153 78/134/155 108/164/156 107/165/154
f 78/134/155 79/133/157 109/163/158 108/164/156
f 79/133/157 80/132/159 110/162/160 109/163/158
f 80/132/159 81/131/161 111/161/162 110/162/160
f 81/131/161 82/130/163 112/160/164 111/161/162
f 82/130/163 83/129/165 113/159/166 112/160/164
f 83/129/165 84/128/167 114/158/168 113/159/166
f 84/128/167 85/127/169 115/157/170 114/158/168
f 85/127/169 86/126/171 116/156/172 115/157/170
f 86/126/171 87/125/173 117/155/174 116/156/172
f 87/125/173 88/124/175 118/154/176 117/155/174
f 88/124/175 89/123/177 119/153/178 118/154/176
f 89/123/177 90/152/179 120/182/180 119/153/178
f 90/152/179 61/151/121 91/181/124 120/182/180
s 1
f 2/2/2 1/1/1 121/183/181
f 3/3/5 2/2/2 121/183/181
f 4/4/7 3/3/5 121/183/181
f 5/5/9 4/4/7 121/183/181
f 6/6/11 5/5/9 121/183/181
f 7/7/13 6/6/11 121/183/181
f 8/8/15 7/7/13 121/183/181
f 9/9/17 8/8/15 121/183/181
f 10/10/19 9/9/17 121/183/181
f 11/11/21 10/10/19 121/183/181
f 12/12/23 11/11/21 121/183/181
f 13/13/25 12/12/23 121/183/181
f 14/14/27 13/13/25 121/183/181
f 15/15/29 14/14/27 121/183/181
f 16/16/31 15/15/29 121/183/181
f 17/17/33 16/16/31 121/183/181
f 18/18/35 17/17/33 121/183/181
f 19/19/37 18/18/35 121/183/181
f 20/20/39 19/19/37 121/183/181
f 21/21/41 20/20/39 121/183/181
f 22/22/43 21/21/41 121/183/181
f 23/23/45 22/22/43 121/183/181
f 24/24/47 23/23/45 121/183/181
f 25/25/49 24/24/47 121/183/181
f 26/26/51 25/25/49 121/183/181
f 27/27/53 26/26/51 121/183/181
f 28/28/55 27/27/53 121/183/181
f 29/29/57 28/28/55 121/183/181
f 30/30/59 29/29/57 121/183/181
f 1/1/1 30/30/59 121/183/181
s 3
f 122/185/182 123/186/183 124/184/184
f 123/186/183 125/187/185 124/184/184
f 125/187/185 126/188/186 124/184/184
f 126/188/186 127/189/187 124/184/184
f 127/189/187 128/190/188 124/184/184
f 128/190/188 129/191/189 124/184/184
f 129/191/189 130/192/190 124/184/184
f 130/192/190 131/193/191 124/184/184
f 131/193/191 132/194/192 124/184/184
f 132/194/192 133/195/193 124/184/184
f 133/195/193 134/196/194 124/184/184
f 134/196/194 135/197/195 124/184/184
f 135/197/195 136/198/196 124/184/184
f 136/198/196 137/199/197 124/184/184
f 137/199/197 138/200/198 124/184/184
f 138/200/198 139/201/199 124/184/184
f 139/201/199 140/202/200 124/184/184
f 140/202/200 141/203/201 124/184/184
f 141/203/201 142/204/202 124/184/184
f 142/204/202 143/205/203 124/184/184
f 143/205/203 144/206/204 124/184/184
f 144/206/204 145/207/205 124/184/184
f 145/207/205 146/208/206 124/184/184
f 146/208/206 147/209/207 124/184/184
f 147/209/207 148/210/208 124/184/184
f 148/210/208 149/211/209 124/184/184
f 149/211/209 150/212/210 124/184/184
f 150/212/210 151/213/211 124/184/184
f 151/213/211 152/214/212 124/184/184
f 152/214/212 122/185/182 124/184/184
f 91/181/124 92/180/123 123/186/183 122/185/182
f 92/180/123 93/179/126 125/187/185 123/186/183
f 93/179/126 94/178/128 126/188/186 125/187/185
f 94/178/128 95/177/130 127/189/187 126/188/186
f 95/177/130 96/176/132 128/190/188 127/189/187
f 96/176/132 97/175/134 129/191/189 128/190/188
f 97/175/134 98/174/136 130/192/190 129/191/189
f 98/174/136 99/173/138 131/193/191 130/192/190
f 99/173/138 100/172/140 132/194/192 131/193/191
f 100/172/140 101/171/142 133/195/193 132/194/192
f 101/171/142 102/170/144 134/196/194 133/195/193
f 102/170/144 103/169/146 135/197/195 134/196/194
f 103/169/146 104/168/148 136/198/196 135/197/195
f 104/168/148 105/167/150 137/199/197 136/198/196
f 105/167/150 106/166/152 138/200/198 137/199/197
f 106/166/152 107/165/154 139/201/199 138/200/198
f 107/165/154 108/164/156 140/202/200 139/201/199
f 108/164/156 109/163/158 141/203/201 140/202/200
f 109/163/158 110/162/160 142/204/202 141/203/201
f 110/162/160 111/161/162 143/205/203 142/204/202
f 111/161/162 112/160/164 144/206/204 143/205/203
f 112/160/164 113/159/166 145/207/205 144/206/204
f 113/159/166 114/158/168 146/208/206 145/207/205
f 114/158/168 115/157/170 147/209/207 146/208/206
f 115/157/170 116/156/172 148/210/208 147/209/207
f 116/156/172 117/155/174 149/211/209 148/210/208
f 117/155/174 118/154/176 150/212/210 149/211/209
f 118/154/176 119/153/178 151/213/211 150/212/210
f 119/153/178 120/182/180 152/214/212 151/213/211
f 120/182/180 91/181/124 122/185/182 152/214/212
