# This file uses centimeters as units for non-parametric coordinates.

g default
v 0.062500 1.812500 0.500000
v 0.062500 1.812500 0.000000
v 2.062500 1.812500 0.000000
v 2.062500 1.812500 0.500000
v 0.062500 0.187500 0.500000
v 0.062500 0.187500 0.000000
v 2.062500 0.187500 0.000000
v 2.062500 0.187500 0.500000
v 0.062500 1.876490 -0.500000
v 2.062500 1.876490 -0.500000
v 2.062500 1.812500 -0.500000
v 0.062500 1.812500 -0.500000
v 2.062500 1.936021 -0.562500
v 0.062500 1.936021 -0.562500
v 2.062500 1.876490 -0.562500
v 0.062500 1.876490 -0.562500
v 0.062500 2.000000 -0.625000
v 2.062500 2.000000 -0.625000
v 2.062500 1.936021 -0.625000
v 0.062500 1.936021 -0.625000
v 0.062500 0.187500 -0.062500
v 2.062500 0.187500 -0.062500
v 2.062500 0.128153 -0.062500
v 0.062500 0.128153 -0.062500
v 0.062500 0.062355 -0.187500
v 2.062500 0.062355 -0.187500
v 2.062500 0.000000 -0.187500
v 0.062500 0.000000 -0.187500
v 0.062500 0.128153 -0.125000
v 2.062500 0.128153 -0.125000
v 2.062500 0.062355 -0.125000
v 0.062500 0.062355 -0.125000
v 2.062500 0.128153 0.562500
v 0.062500 0.128153 0.562500
v 2.062500 0.187500 0.562500
v 0.062500 0.187500 0.562500
v 2.062500 1.812500 0.562500
v 0.062500 1.812500 0.562500
v 2.062500 1.876490 0.562500
v 0.062500 1.876490 0.562500
v 2.062500 1.936021 0.625000
v 0.062500 1.936021 0.625000
v 2.062500 1.876490 0.625000
v 0.062500 1.876490 0.625000
v 2.062500 0.062355 0.625000
v 0.062500 0.062355 0.625000
v 2.062500 0.128153 0.625000
v 0.062500 0.128153 0.625000
v 0.062500 0.000000 0.687500
v 2.062500 0.000000 0.687500
v 2.062500 0.062355 0.687500
v 0.062500 0.062355 0.687500
v 2.062500 1.936021 0.687500
v 0.062500 1.936021 0.687500
v 2.062500 2.000000 0.687500
v 0.062500 2.000000 0.687500
vt 0.375000 0.209957
vt 0.125000 0.209957
vt 0.375000 0.540043
vt 0.625000 0.540043
vt 0.875000 0.209957
vt 0.625000 0.209957
vt 0.375000 0.042086
vt 0.125000 0.042086
vt 0.375000 0.707914
vt 0.625000 0.707914
vt 0.875000 0.042086
vt 0.625000 0.042086
vt 0.375000 0.028765
vt 0.625000 0.223623
vt 0.625000 0.526377
vt 0.625000 0.540043
vt 0.375000 0.540043
vt 0.375000 0.526377
vt 0.625000 0.513663
vt 0.375000 0.513663
vt 0.625000 0.526377
vt 0.375000 0.526377
vt 0.375000 0.500000
vt 0.625000 0.500000
vt 0.625000 0.513663
vt 0.375000 0.513663
vt 0.375000 0.707914
vt 0.625000 0.707914
vt 0.625000 0.721235
vt 0.375000 0.721235
vt 0.375000 0.736004
vt 0.625000 0.736004
vt 0.625000 0.750000
vt 0.375000 0.750000
vt 0.375000 0.721235
vt 0.625000 0.721235
vt 0.625000 0.736004
vt 0.375000 0.736004
vt 0.375000 0.209957
vt 0.625000 0.209957
vt 0.625000 0.223623
vt 0.375000 0.223623
vt 0.625000 0.028765
vt 0.625000 0.042086
vt 0.375000 0.042086
vt 0.375000 0.028765
vt 0.625000 0.236337
vt 0.375000 0.236337
vt 0.375000 0.223623
vt 0.625000 0.223623
vt 0.625000 0.013996
vt 0.375000 0.013996
vt 0.625000 0.028765
vt 0.375000 0.028765
vt 0.375000 0.000000
vt 0.625000 0.000000
vt 0.625000 0.013996
vt 0.375000 0.013996
vt 0.375000 0.236337
vt 0.625000 0.236337
vt 0.625000 0.250000
vt 0.375000 0.250000
vt 0.625000 0.209957
vt 0.625000 0.223623
vt 0.625000 0.209957
vt 0.375000 0.042086
vt 0.375000 0.028765
vt 0.375000 0.042086
vn 0.000000 0.000000 1.000000
vn 0.000000 0.000000 1.000000
vn 0.000000 0.000000 1.000000
vn 0.000000 0.000000 1.000000
vn 0.000000 0.000000 -1.000000
vn 0.000000 0.000000 -1.000000
vn 0.000000 0.000000 -1.000000
vn 0.000000 0.000000 -1.000000
vn 0.000000 0.000000 -1.000000
vn 0.000000 0.000000 -1.000000
vn 0.000000 0.000000 -1.000000
vn 0.000000 0.000000 -1.000000
vn 0.000000 0.000000 1.000000
vn 0.000000 0.000000 1.000000
vn 0.000000 0.000000 1.000000
vn 0.000000 0.000000 1.000000
vn -1.000000 0.000000 0.000000
vn -1.000000 0.000000 0.000000
vn -1.000000 0.000000 0.000000
vn -1.000000 0.000000 0.000000
vn 0.000000 0.000000 -1.000000
vn 0.000000 0.000000 -1.000000
vn 0.000000 0.000000 -1.000000
vn 0.000000 0.000000 -1.000000
vn 1.000000 0.000000 0.000000
vn 1.000000 0.000000 0.000000
vn 1.000000 0.000000 0.000000
vn 1.000000 0.000000 0.000000
vn 0.000000 0.000000 1.000000
vn 0.000000 0.000000 1.000000
vn 0.000000 0.000000 1.000000
vn 0.000000 0.000000 1.000000
vn 0.000000 0.000000 1.000000
vn 0.000000 0.000000 1.000000
vn 0.000000 0.000000 1.000000
vn 0.000000 0.000000 1.000000
vn 0.000000 0.000000 -1.000000
vn 0.000000 0.000000 -1.000000
vn 0.000000 0.000000 -1.000000
vn 0.000000 0.000000 -1.000000
vn 0.000000 0.000000 1.000000
vn 0.000000 0.000000 1.000000
vn 0.000000 0.000000 1.000000
vn 0.000000 0.000000 1.000000
vn 0.000000 0.000000 -1.000000
vn 0.000000 0.000000 -1.000000
vn 0.000000 0.000000 -1.000000
vn 0.000000 0.000000 -1.000000
vn 0.000000 0.000000 1.000000
vn 0.000000 0.000000 1.000000
vn 0.000000 0.000000 1.000000
vn 0.000000 0.000000 1.000000
vn 0.000000 0.000000 -1.000000
vn 0.000000 0.000000 -1.000000
vn 0.000000 0.000000 -1.000000
vn 0.000000 0.000000 -1.000000
vn 0.000000 0.000000 1.000000
vn 0.000000 0.000000 1.000000
vn 0.000000 0.000000 1.000000
vn 0.000000 0.000000 1.000000
vn 0.000000 0.000000 -1.000000
vn 0.000000 0.000000 -1.000000
vn 0.000000 0.000000 -1.000000
vn 0.000000 0.000000 -1.000000
vn 0.000000 -1.000000 0.000000
vn 0.000000 -1.000000 0.000000
vn 0.000000 -1.000000 0.000000
vn 0.000000 -1.000000 0.000000
vn 0.000000 -1.000000 0.000000
vn 0.000000 -1.000000 0.000000
vn 0.000000 -1.000000 0.000000
vn 0.000000 -1.000000 0.000000
vn 0.000000 -1.000000 0.000000
vn 0.000000 -1.000000 0.000000
vn 0.000000 -1.000000 0.000000
vn 0.000000 -1.000000 0.000000
vn 0.000000 1.000000 0.000000
vn 0.000000 1.000000 0.000000
vn 0.000000 1.000000 0.000000
vn 0.000000 1.000000 0.000000
vn 0.000000 1.000000 0.000000
vn 0.000000 1.000000 0.000000
vn 0.000000 1.000000 0.000000
vn 0.000000 1.000000 0.000000
vn 0.000000 1.000000 0.000000
vn 0.000000 1.000000 0.000000
vn 0.000000 1.000000 0.000000
vn 0.000000 1.000000 0.000000
vn 0.000000 -1.000000 0.000000
vn 0.000000 -1.000000 0.000000
vn 0.000000 -1.000000 0.000000
vn 0.000000 -1.000000 0.000000
vn 0.000000 -1.000000 0.000000
vn 0.000000 -1.000000 0.000000
vn 0.000000 -1.000000 0.000000
vn 0.000000 -1.000000 0.000000
vn 0.000000 1.000000 0.000000
vn 0.000000 1.000000 0.000000
vn 0.000000 1.000000 0.000000
vn 0.000000 1.000000 0.000000
vn 0.000000 1.000000 0.000000
vn 0.000000 1.000000 0.000000
vn 0.000000 1.000000 0.000000
vn 0.000000 1.000000 0.000000
vn 0.000000 -1.000000 0.000000
vn 0.000000 -1.000000 0.000000
vn 0.000000 -1.000000 0.000000
vn 0.000000 -1.000000 0.000000
vn 0.000000 -1.000000 0.000000
vn 0.000000 -1.000000 0.000000
vn 0.000000 -1.000000 0.000000
vn 0.000000 -1.000000 0.000000
vn 0.000000 1.000000 0.000000
vn 0.000000 1.000000 0.000000
vn 0.000000 1.000000 0.000000
vn 0.000000 1.000000 0.000000
vn 1.000000 0.000000 0.000000
vn 1.000000 0.000000 0.000000
vn 1.000000 0.000000 0.000000
vn 1.000000 0.000000 0.000000
vn 1.000000 0.000000 0.000000
vn 1.000000 0.000000 0.000000
vn 1.000000 0.000000 0.000000
vn 1.000000 0.000000 0.000000
vn 1.000000 0.000000 0.000000
vn 1.000000 0.000000 0.000000
vn 1.000000 0.000000 0.000000
vn 1.000000 0.000000 0.000000
vn -1.000000 0.000000 0.000000
vn -1.000000 0.000000 0.000000
vn -1.000000 0.000000 0.000000
vn -1.000000 0.000000 0.000000
vn -1.000000 0.000000 0.000000
vn -1.000000 0.000000 0.000000
vn -1.000000 0.000000 0.000000
vn -1.000000 0.000000 0.000000
vn -1.000000 0.000000 0.000000
vn -1.000000 0.000000 0.000000
vn -1.000000 0.000000 0.000000
vn -1.000000 0.000000 0.000000
vn 0.000000 1.000000 0.000000
vn 0.000000 1.000000 0.000000
vn 0.000000 1.000000 0.000000
vn 0.000000 1.000000 0.000000
vn -1.000000 0.000000 0.000000
vn -1.000000 0.000000 0.000000
vn -1.000000 0.000000 0.000000
vn -1.000000 0.000000 0.000000
vn -1.000000 0.000000 0.000000
vn -1.000000 0.000000 0.000000
vn -1.000000 0.000000 0.000000
vn -1.000000 0.000000 0.000000
vn -1.000000 0.000000 0.000000
vn -1.000000 0.000000 0.000000
vn -1.000000 0.000000 0.000000
vn -1.000000 0.000000 0.000000
vn 1.000000 0.000000 0.000000
vn 1.000000 0.000000 0.000000
vn 1.000000 0.000000 0.000000
vn 1.000000 0.000000 0.000000
vn 1.000000 0.000000 0.000000
vn 1.000000 0.000000 0.000000
vn 1.000000 0.000000 0.000000
vn 1.000000 0.000000 0.000000
vn 1.000000 0.000000 0.000000
vn 1.000000 0.000000 0.000000
vn 1.000000 0.000000 0.000000
vn 1.000000 0.000000 0.000000
s off
g frontCounter
f 49/55/1 50/56/2 51/57/3 52/58/4
f 25/31/5 26/32/6 27/33/7 28/34/8
f 9/18/9 10/15/10 11/16/11 12/17/12
f 38/39/13 37/40/14 39/41/15 40/42/16
f 6/8/17 5/7/18 1/1/19 2/2/20
f 2/3/21 3/4/22 7/10/23 6/9/24
f 8/12/25 7/11/26 3/5/27 4/6/28
f 5/7/29 8/12/30 4/6/31 1/1/32
f 34/46/33 33/43/34 35/44/35 36/45/36
f 21/27/37 22/28/38 23/29/39 24/30/40
f 46/52/41 45/51/42 47/53/43 48/54/44
f 29/35/45 30/36/46 31/37/47 32/38/48
f 54/59/49 53/60/50 55/61/51 56/62/52
f 17/23/53 18/24/54 19/25/55 20/26/56
f 44/49/57 43/50/58 41/47/59 42/48/60
f 14/20/61 13/19/62 15/21/63 16/22/64
f 3/4/65 2/3/66 12/17/67 11/16/68
f 10/15/69 9/18/70 16/22/71 15/21/72
f 13/19/73 14/20/74 20/26/75 19/25/76
f 6/9/77 7/10/78 22/28/79 21/27/80
f 24/30/81 23/29/82 30/36/83 29/35/84
f 8/63/85 5/14/86 36/64/87 35/65/88
f 1/66/89 4/13/90 37/67/91 38/68/92
f 40/42/93 39/41/94 43/50/95 44/49/96
f 33/43/97 34/46/98 48/54/99 47/53/100
f 45/51/101 46/52/102 52/58/103 51/57/104
f 42/48/105 41/47/106 53/60/107 54/59/108
f 28/34/109 27/33/110 50/56/111 49/55/112
f 26/32/113 25/31/114 32/38/115 31/37/116
f 27/33/117 26/32/118 51/57/119 50/56/120
f 31/37/121 30/36/122 47/53/123 45/51/124
f 23/29/125 22/28/126 35/44/127 33/43/128
f 21/27/129 24/30/130 34/46/131 36/45/132
f 29/35/133 32/38/134 46/52/135 48/54/136
f 25/31/137 28/34/138 49/55/139 52/58/140
f 18/24/141 17/23/142 56/62/143 55/61/144
f 17/23/145 20/26/146 54/59/147 56/62/148
f 14/20/149 16/22/150 44/49/151 42/48/152
f 9/18/153 12/17/154 38/39/155 40/42/156
f 19/25/157 18/24/158 55/61/159 53/60/160
f 15/21/161 13/19/162 41/47/163 43/50/164
f 11/16/165 10/15/166 39/41/167 37/40/168
