# This file uses centimeters as units for non-parametric coordinates.

g default
v 0.972192 0.894127 -0.062500
v 0.880930 1.049004 -0.062500
v 0.679219 1.159379 -0.062500
v 0.309017 1.228128 -0.062500
v 0.000000 1.250000 -0.062500
v -0.309017 1.228128 -0.062500
v -0.679219 1.159379 -0.062500
v -0.880930 1.049004 -0.062500
v -0.972191 0.894126 -0.062500
v -1.000000 0.625000 -0.062500
v -0.972191 0.330877 -0.062500
v -0.880930 0.168188 -0.062500
v -0.679219 0.083132 -0.062500
v -0.309017 0.022331 -0.062500
v -0.000000 0.003535 -0.062500
v 0.309017 0.022331 -0.062500
v 0.679219 0.083132 -0.062500
v 0.880930 0.168188 -0.062500
v 0.972191 0.330877 -0.062500
v 1.000000 0.625000 -0.062500
v 0.972192 0.894127 0.000000
v 0.880930 1.049004 0.000000
v 0.679219 1.159379 0.000000
v 0.309017 1.228128 0.000000
v 0.000000 1.250000 0.000000
v -0.309017 1.228128 0.000000
v -0.679219 1.159379 0.000000
v -0.880930 1.049004 0.000000
v -0.972191 0.894126 0.000000
v -1.000000 0.625000 0.000000
v -0.972191 0.330877 0.000000
v -0.880930 0.168188 0.000000
v -0.679219 0.083132 0.000000
v -0.309017 0.022331 0.000000
v -0.000000 0.003535 0.000000
v 0.309017 0.022331 0.000000
v 0.679219 0.083132 0.000000
v 0.880930 0.168188 0.000000
v 0.972191 0.330877 0.000000
v 1.000000 0.625000 0.000000
v -0.000000 0.633714 -0.062500
v -0.000000 0.633714 0.000000
v 1.217383 -0.091803 -0.062500
v 1.226107 -0.088124 -0.062500
v 1.226107 -0.088124 0.000000
v 1.217383 -0.091803 0.000000
v 1.230052 -0.081089 -0.062500
v 1.230052 -0.081089 0.000000
vt 0.648603 0.107966
vt 0.626409 0.064408
vt 0.591842 0.029841
vt 0.548284 0.007647
vt 0.500000 -0.000000
vt 0.451716 0.007647
vt 0.408159 0.029841
vt 0.373591 0.064409
vt 0.351397 0.107966
vt 0.343750 0.156250
vt 0.351397 0.204534
vt 0.373591 0.248091
vt 0.408159 0.282659
vt 0.451716 0.304853
vt 0.500000 0.312500
vt 0.548284 0.304853
vt 0.591841 0.282659
vt 0.626409 0.248091
vt 0.648603 0.204534
vt 0.656250 0.156250
vt 0.375000 0.312500
vt 0.387500 0.312500
vt 0.400000 0.312500
vt 0.412500 0.312500
vt 0.425000 0.312500
vt 0.437500 0.312500
vt 0.450000 0.312500
vt 0.462500 0.312500
vt 0.475000 0.312500
vt 0.487500 0.312500
vt 0.500000 0.312500
vt 0.512500 0.312500
vt 0.525000 0.312500
vt 0.537500 0.312500
vt 0.550000 0.312500
vt 0.562500 0.312500
vt 0.575000 0.312500
vt 0.587500 0.312500
vt 0.600000 0.312500
vt 0.612500 0.312500
vt 0.625000 0.312500
vt 0.375000 0.688440
vt 0.387500 0.688440
vt 0.400000 0.688440
vt 0.412500 0.688440
vt 0.425000 0.688440
vt 0.437500 0.688440
vt 0.450000 0.688440
vt 0.462500 0.688440
vt 0.475000 0.688440
vt 0.487500 0.688440
vt 0.500000 0.688440
vt 0.512500 0.688440
vt 0.525000 0.688440
vt 0.537500 0.688440
vt 0.550000 0.688440
vt 0.562500 0.688440
vt 0.575000 0.688440
vt 0.587500 0.688440
vt 0.600000 0.688440
vt 0.612500 0.688440
vt 0.625000 0.688440
vt 0.648603 0.795466
vt 0.626409 0.751908
vt 0.591842 0.717341
vt 0.548284 0.695147
vt 0.500000 0.687500
vt 0.451716 0.695147
vt 0.408159 0.717341
vt 0.373591 0.751909
vt 0.351397 0.795466
vt 0.343750 0.843750
vt 0.351397 0.892034
vt 0.373591 0.935591
vt 0.408159 0.970159
vt 0.451716 0.992353
vt 0.500000 1.000000
vt 0.548284 0.992353
vt 0.591841 0.970159
vt 0.626409 0.935591
vt 0.648603 0.892034
vt 0.656250 0.843750
vt 0.500000 0.150000
vt 0.500000 0.837500
vt 0.575000 0.312500
vt 0.587500 0.312500
vt 0.587500 0.688440
vt 0.575000 0.688440
vt 0.600000 0.312500
vt 0.600000 0.688440
vn 0.962758 0.270364 0.000000
vn 0.671166 0.741307 0.000000
vn 0.671166 0.741307 0.000000
vn 0.962758 0.270364 0.000000
vn 0.298885 0.954289 0.000000
vn 0.298885 0.954289 0.000000
vn 0.132248 0.991217 0.000000
vn 0.132248 0.991217 0.000000
vn -0.000000 1.000000 0.000000
vn -0.000000 1.000000 0.000000
vn -0.132248 0.991217 0.000000
vn -0.132248 0.991217 0.000000
vn -0.298885 0.954289 0.000000
vn -0.298885 0.954289 0.000000
vn -0.671167 0.741307 0.000000
vn -0.671167 0.741307 0.000000
vn -0.962758 0.270365 0.000000
vn -0.962758 0.270365 0.000000
vn -1.000000 0.000000 0.000000
vn -1.000000 0.000000 0.000000
vn -0.967668 -0.252228 0.000000
vn -0.967668 -0.252228 0.000000
vn -0.645707 -0.763586 0.000000
vn -0.645707 -0.763586 0.000000
vn -0.247124 -0.968984 0.000000
vn -0.247124 -0.968984 0.000000
vn -0.116392 -0.993203 0.000000
vn -0.116392 -0.993203 0.000000
vn 0.000000 -1.000000 0.000000
vn 0.000000 -1.000000 0.000000
vn 0.116392 -0.993203 0.000000
vn 0.116392 -0.993203 0.000000
vn 0.162067 -0.986780 0.000000
vn 0.162067 -0.986780 0.000000
vn 0.388557 -0.921425 0.000000
vn 0.645722 -0.763573 0.000000
vn 0.645722 -0.763573 0.000000
vn 0.388557 -0.921425 0.000000
vn 0.872209 -0.489133 0.000000
vn 0.872209 -0.489133 0.000000
vn 0.995560 -0.094129 0.000000
vn 1.000000 -0.000001 0.000000
vn 1.000000 -0.000001 0.000000
vn 0.995560 -0.094129 0.000000
vn 0.000000 -0.000000 -1.000000
vn 0.000000 -0.000000 -1.000000
vn 0.000000 -0.000000 -1.000000
vn 0.000000 -0.000000 -1.000000
vn 0.000000 -0.000000 -1.000000
vn 0.000000 0.000000 -1.000000
vn 0.000000 -0.000000 -1.000000
vn 0.000000 -0.000000 -1.000000
vn 0.000000 -0.000000 -1.000000
vn 0.000000 -0.000000 -1.000000
vn 0.000000 -0.000000 -1.000000
vn 0.000000 -0.000000 -1.000000
vn 0.000000 -0.000000 -1.000000
vn 0.000000 -0.000000 -1.000000
vn 0.000000 -0.000000 -1.000000
vn 0.000000 0.000000 -1.000000
vn 0.000000 -0.000000 -1.000000
vn 0.000000 -0.000000 -1.000000
vn 0.000000 -0.000000 -1.000000
vn 0.000000 -0.000000 -1.000000
vn 0.000000 -0.000000 -1.000000
vn 0.000000 0.000000 1.000000
vn 0.000000 0.000000 1.000000
vn 0.000000 0.000000 1.000000
vn 0.000000 0.000000 1.000000
vn 0.000000 0.000000 1.000000
vn 0.000000 0.000000 1.000000
vn 0.000000 0.000000 1.000000
vn 0.000000 0.000000 1.000000
vn 0.000000 0.000000 1.000000
vn 0.000000 0.000000 1.000000
vn 0.000000 0.000000 1.000000
vn 0.000000 0.000000 1.000000
vn 0.000000 0.000000 1.000000
vn 0.000000 0.000000 1.000000
vn 0.000000 0.000000 1.000000
vn 0.000000 0.000000 1.000000
vn 0.000000 0.000000 1.000000
vn 0.000000 0.000000 1.000000
vn 0.000000 0.000000 1.000000
vn 0.000000 0.000000 1.000000
vn 0.000000 0.000000 1.000000
vn 0.000000 -0.000000 -1.000000
vn 0.000000 -0.000000 -1.000000
vn 0.000000 -0.000000 -1.000000
vn 0.000000 -0.000000 -1.000000
vn 0.000000 0.000000 1.000000
vn 0.000000 0.000000 1.000000
vn 0.000000 0.000000 1.000000
vn 0.000000 0.000000 1.000000
vn -0.309138 -0.951017 0.000000
vn -0.309138 -0.951017 0.000000
vn -0.309138 -0.951017 0.000000
vn -0.309138 -0.951017 0.000000
vn 0.000000 -0.000000 -1.000000
vn 0.000000 -0.000000 -1.000000
vn 0.000000 -0.000000 -1.000000
vn 0.000000 -0.000000 -1.000000
vn 0.847645 0.530564 0.000000
vn 0.847645 0.530564 0.000000
vn 0.847645 0.530564 0.000000
vn 0.847645 0.530564 0.000000
vn 0.000000 0.000000 1.000000
vn 0.000000 0.000000 1.000000
vn 0.000000 0.000000 1.000000
vn 0.000000 0.000000 1.000000
s 1
g speechBubble
f 1/21/1 2/22/2 22/43/3 21/42/4
f 2/22/2 3/23/5 23/44/6 22/43/3
f 3/23/5 4/24/7 24/45/8 23/44/6
f 4/24/7 5/25/9 25/46/10 24/45/8
f 5/25/9 6/26/11 26/47/12 25/46/10
f 6/26/11 7/27/13 27/48/14 26/47/12
f 7/27/13 8/28/15 28/49/16 27/48/14
f 8/28/15 9/29/17 29/50/18 28/49/16
f 9/29/17 10/30/19 30/51/20 29/50/18
f 10/30/19 11/31/21 31/52/22 30/51/20
f 11/31/21 12/32/23 32/53/24 31/52/22
f 12/32/23 13/33/25 33/54/26 32/53/24
f 13/33/25 14/34/27 34/55/28 33/54/26
f 14/34/27 15/35/29 35/56/30 34/55/28
f 15/35/29 16/36/31 36/57/32 35/56/30
f 16/36/31 17/37/33 37/58/34 36/57/32
s 2
f 43/85/35 44/86/36 45/87/37 46/88/38
f 44/86/36 47/89/39 48/90/40 45/87/37
s 1
f 19/39/41 20/40/42 40/61/43 39/60/44
f 20/40/42 1/41/1 21/62/4 40/61/43
s 3
f 2/2/45 1/1/46 41/83/47
f 3/3/48 2/2/45 41/83/47
f 4/4/49 3/3/48 41/83/47
f 5/5/50 4/4/49 41/83/47
f 6/6/51 5/5/50 41/83/47
f 7/7/52 6/6/51 41/83/47
f 8/8/53 7/7/52 41/83/47
f 9/9/54 8/8/53 41/83/47
f 10/10/55 9/9/54 41/83/47
f 11/11/56 10/10/55 41/83/47
f 12/12/57 11/11/56 41/83/47
f 13/13/58 12/12/57 41/83/47
f 14/14/59 13/13/58 41/83/47
f 15/15/60 14/14/59 41/83/47
f 16/16/61 15/15/60 41/83/47
f 17/17/62 16/16/61 41/83/47
f 18/18/63 17/17/62 41/83/47
f 19/19/64 18/18/63 41/83/47
f 20/20/65 19/19/64 41/83/47
f 1/1/46 20/20/65 41/83/47
s 4
f 21/81/66 22/80/67 42/84/68
f 22/80/67 23/79/69 42/84/68
f 23/79/69 24/78/70 42/84/68
f 24/78/70 25/77/71 42/84/68
f 25/77/71 26/76/72 42/84/68
f 26/76/72 27/75/73 42/84/68
f 27/75/73 28/74/74 42/84/68
f 28/74/74 29/73/75 42/84/68
f 29/73/75 30/72/76 42/84/68
f 30/72/76 31/71/77 42/84/68
f 31/71/77 32/70/78 42/84/68
f 32/70/78 33/69/79 42/84/68
f 33/69/79 34/68/80 42/84/68
f 34/68/80 35/67/81 42/84/68
f 35/67/81 36/66/82 42/84/68
f 36/66/82 37/65/83 42/84/68
f 37/65/83 38/64/84 42/84/68
f 38/64/84 39/63/85 42/84/68
f 39/63/85 40/82/86 42/84/68
f 40/82/86 21/81/66 42/84/68
s off
f 17/37/87 18/38/88 44/86/89 43/85/90
f 38/59/91 37/58/92 46/88/93 45/87/94
f 37/58/95 17/37/96 43/85/97 46/88/98
f 18/38/99 19/39/100 47/89/101 44/86/102
f 19/39/103 39/60/104 48/90/105 47/89/106
f 39/60/107 38/59/108 45/87/109 48/90/110
