# This file uses centimeters as units for non-parametric coordinates.

mtllib straw.mtl
g default
v -0.286835 2.505236 -0.013003
v -0.292464 2.507245 -0.024734
v -0.301232 2.510375 -0.034043
v -0.312280 2.514318 -0.040020
v -0.324526 2.518690 -0.042080
v -0.336773 2.523061 -0.040020
v -0.347821 2.527005 -0.034043
v -0.356588 2.530135 -0.024734
v -0.362217 2.532144 -0.013003
v -0.364157 2.532836 0.000000
v -0.362217 2.532144 0.013003
v -0.356588 2.530135 0.024734
v -0.347821 2.527005 0.034043
v -0.336773 2.523061 0.040020
v -0.324526 2.518690 0.042080
v -0.312280 2.514318 0.040020
v -0.301232 2.510375 0.034043
v -0.292464 2.507245 0.024734
v -0.286835 2.505236 0.013003
v -0.284896 2.504543 0.000000
v 1.041543 6.226653 -0.013003
v 1.035914 6.228662 -0.024734
v 1.027146 6.231792 -0.034043
v 1.016098 6.235735 -0.040020
v 1.003852 6.240107 -0.042080
v 0.991605 6.244478 -0.040020
v 0.980557 6.248422 -0.034043
v 0.971790 6.251551 -0.024734
v 0.966161 6.253561 -0.013003
v 0.964221 6.254253 0.000000
v 0.966161 6.253561 0.013003
v 0.971790 6.251551 0.024734
v 0.980557 6.248422 0.034043
v 0.991605 6.244478 0.040020
v 1.003852 6.240107 0.042080
v 1.016098 6.235735 0.040020
v 1.027146 6.231792 0.034043
v 1.035914 6.228662 0.024734
v 1.041543 6.226653 0.013003
v 1.043483 6.225960 0.000000
v -0.324526 2.518690 0.000000
v 1.003852 6.240107 0.000000
vt 0.648603 0.107966
vt 0.626409 0.064408
vt 0.591842 0.029841
vt 0.548284 0.007647
vt 0.500000 -0.000000
vt 0.451716 0.007647
vt 0.408159 0.029841
vt 0.373591 0.064409
vt 0.351397 0.107966
vt 0.343750 0.156250
vt 0.351397 0.204534
vt 0.373591 0.248091
vt 0.408159 0.282659
vt 0.451716 0.304853
vt 0.500000 0.312500
vt 0.548284 0.304853
vt 0.591841 0.282659
vt 0.626409 0.248091
vt 0.648603 0.204534
vt 0.656250 0.156250
vt 0.375000 0.312500
vt 0.387500 0.312500
vt 0.400000 0.312500
vt 0.412500 0.312500
vt 0.425000 0.312500
vt 0.437500 0.312500
vt 0.450000 0.312500
vt 0.462500 0.312500
vt 0.475000 0.312500
vt 0.487500 0.312500
vt 0.500000 0.312500
vt 0.512500 0.312500
vt 0.525000 0.312500
vt 0.537500 0.312500
vt 0.550000 0.312500
vt 0.562500 0.312500
vt 0.575000 0.312500
vt 0.587500 0.312500
vt 0.600000 0.312500
vt 0.612500 0.312500
vt 0.625000 0.312500
vt 0.375000 0.688440
vt 0.387500 0.688440
vt 0.400000 0.688440
vt 0.412500 0.688440
vt 0.425000 0.688440
vt 0.437500 0.688440
vt 0.450000 0.688440
vt 0.462500 0.688440
vt 0.475000 0.688440
vt 0.487500 0.688440
vt 0.500000 0.688440
vt 0.512500 0.688440
vt 0.525000 0.688440
vt 0.537500 0.688440
vt 0.550000 0.688440
vt 0.562500 0.688440
vt 0.575000 0.688440
vt 0.587500 0.688440
vt 0.600000 0.688440
vt 0.612500 0.688440
vt 0.625000 0.688440
vt 0.648603 0.795466
vt 0.626409 0.751908
vt 0.591842 0.717341
vt 0.548284 0.695147
vt 0.500000 0.687500
vt 0.451716 0.695147
vt 0.408159 0.717341
vt 0.373591 0.751909
vt 0.351397 0.795466
vt 0.343750 0.843750
vt 0.351397 0.892034
vt 0.373591 0.935591
vt 0.408159 0.970159
vt 0.451716 0.992353
vt 0.500000 1.000000
vt 0.548284 0.992353
vt 0.591841 0.970159
vt 0.626409 0.935591
vt 0.648603 0.892034
vt 0.656250 0.843750
vt 0.500000 0.150000
vt 0.500000 0.837500
vn 0.895704 -0.319726 -0.309015
vn 0.761931 -0.271975 -0.587785
vn 0.761931 -0.271975 -0.587785
vn 0.895704 -0.319726 -0.309015
vn 0.553574 -0.197601 -0.809017
vn 0.553574 -0.197601 -0.809017
vn 0.291031 -0.103885 -0.951057
vn 0.291031 -0.103885 -0.951057
vn 0.000001 -0.000000 -1.000000
vn 0.000001 -0.000000 -1.000000
vn -0.291031 0.103885 -0.951057
vn -0.291031 0.103885 -0.951057
vn -0.553576 0.197601 -0.809017
vn -0.553576 0.197601 -0.809017
vn -0.761931 0.271975 -0.587785
vn -0.761931 0.271975 -0.587785
vn -0.895703 0.319726 -0.309016
vn -0.895703 0.319726 -0.309016
vn -0.941798 0.336179 0.000000
vn -0.941798 0.336179 0.000000
vn -0.895703 0.319726 0.309017
vn -0.895703 0.319726 0.309017
vn -0.761930 0.271975 0.587785
vn -0.761930 0.271975 0.587785
vn -0.553575 0.197601 0.809017
vn -0.553575 0.197601 0.809017
vn -0.291030 0.103885 0.951057
vn -0.291030 0.103885 0.951057
vn 0.000000 -0.000000 1.000000
vn 0.000000 -0.000000 1.000000
vn 0.291031 -0.103885 0.951057
vn 0.291031 -0.103885 0.951057
vn 0.553575 -0.197601 0.809017
vn 0.553575 -0.197601 0.809017
vn 0.761930 -0.271975 0.587786
vn 0.761930 -0.271975 0.587786
vn 0.895703 -0.319726 0.309016
vn 0.895703 -0.319726 0.309016
vn 0.941798 -0.336179 0.000001
vn 0.941798 -0.336179 0.000001
vn -0.336179 -0.941798 0.000000
vn -0.336179 -0.941798 0.000000
vn -0.336179 -0.941798 -0.000001
vn -0.336179 -0.941798 -0.000004
vn -0.336179 -0.941798 -0.000004
vn -0.336179 -0.941798 0.000000
vn -0.336179 -0.941798 -0.000008
vn -0.336179 -0.941798 -0.000008
vn -0.336179 -0.941798 0.000000
vn -0.336179 -0.941798 0.000000
vn -0.336179 -0.941798 0.000000
vn -0.336179 -0.941798 0.000000
vn -0.336179 -0.941798 0.000000
vn -0.336179 -0.941798 0.000004
vn -0.336179 -0.941798 0.000003
vn -0.336179 -0.941798 -0.000001
vn -0.336179 -0.941798 0.000008
vn -0.336179 -0.941798 -0.000000
vn -0.336179 -0.941798 0.000008
vn -0.336179 -0.941798 0.000000
vn -0.336179 -0.941798 -0.000016
vn 0.336179 0.941798 0.000000
vn 0.336179 0.941798 0.000000
vn 0.336179 0.941798 -0.000002
vn 0.336179 0.941798 -0.000008
vn 0.336179 0.941798 -0.000008
vn 0.336179 0.941798 0.000000
vn 0.336179 0.941798 -0.000004
vn 0.336179 0.941798 0.000004
vn 0.336179 0.941798 0.000000
vn 0.336179 0.941798 -0.000008
vn 0.336179 0.941798 0.000000
vn 0.336179 0.941798 0.000000
vn 0.336179 0.941798 0.000000
vn 0.336179 0.941798 0.000008
vn 0.336179 0.941798 0.000008
vn 0.336179 0.941798 0.000001
vn 0.336179 0.941798 0.000005
vn 0.336179 0.941798 -0.000004
vn 0.336179 0.941798 0.000000
vn 0.336179 0.941798 -0.000008
vn 0.336179 0.941798 -0.000016
s 1
g straw fancyCup1
usemtl lambert3SG
f 1/21/1 2/22/2 22/43/3 21/42/4
f 2/22/2 3/23/5 23/44/6 22/43/3
f 3/23/5 4/24/7 24/45/8 23/44/6
f 4/24/7 5/25/9 25/46/10 24/45/8
f 5/25/9 6/26/11 26/47/12 25/46/10
f 6/26/11 7/27/13 27/48/14 26/47/12
f 7/27/13 8/28/15 28/49/16 27/48/14
f 8/28/15 9/29/17 29/50/18 28/49/16
f 9/29/17 10/30/19 30/51/20 29/50/18
f 10/30/19 11/31/21 31/52/22 30/51/20
f 11/31/21 12/32/23 32/53/24 31/52/22
f 12/32/23 13/33/25 33/54/26 32/53/24
f 13/33/25 14/34/27 34/55/28 33/54/26
f 14/34/27 15/35/29 35/56/30 34/55/28
f 15/35/29 16/36/31 36/57/32 35/56/30
f 16/36/31 17/37/33 37/58/34 36/57/32
f 17/37/33 18/38/35 38/59/36 37/58/34
f 18/38/35 19/39/37 39/60/38 38/59/36
f 19/39/37 20/40/39 40/61/40 39/60/38
f 20/40/39 1/41/1 21/62/4 40/61/40
s 2
f 2/2/41 1/1/42 41/83/43
f 3/3/44 2/2/41 41/83/43
f 4/4/45 3/3/44 41/83/43
f 5/5/46 4/4/45 41/83/43
f 6/6/47 5/5/46 41/83/43
f 7/7/48 6/6/47 41/83/43
f 8/8/49 7/7/48 41/83/43
f 9/9/50 8/8/49 41/83/43
f 10/10/51 9/9/50 41/83/43
f 11/11/52 10/10/51 41/83/43
f 12/12/53 11/11/52 41/83/43
f 13/13/54 12/12/53 41/83/43
f 14/14/55 13/13/54 41/83/43
f 15/15/56 14/14/55 41/83/43
f 16/16/57 15/15/56 41/83/43
f 17/17/58 16/16/57 41/83/43
f 18/18/59 17/17/58 41/83/43
f 19/19/60 18/18/59 41/83/43
f 20/20/61 19/19/60 41/83/43
f 1/1/42 20/20/61 41/83/43
s 3
f 21/81/62 22/80/63 42/84/64
f 22/80/63 23/79/65 42/84/64
f 23/79/65 24/78/66 42/84/64
f 24/78/66 25/77/67 42/84/64
f 25/77/67 26/76/68 42/84/64
f 26/76/68 27/75/69 42/84/64
f 27/75/69 28/74/70 42/84/64
f 28/74/70 29/73/71 42/84/64
f 29/73/71 30/72/72 42/84/64
f 30/72/72 31/71/73 42/84/64
f 31/71/73 32/70/74 42/84/64
f 32/70/74 33/69/75 42/84/64
f 33/69/75 34/68/76 42/84/64
f 34/68/76 35/67/77 42/84/64
f 35/67/77 36/66/78 42/84/64
f 36/66/78 37/65/79 42/84/64
f 37/65/79 38/64/80 42/84/64
f 38/64/80 39/63/81 42/84/64
f 39/63/81 40/82/82 42/84/64
f 40/82/82 21/81/62 42/84/64
