# This file uses centimeters as units for non-parametric coordinates.

mtllib umbrellaTopper.mtl
g default
v -0.334546 4.883494 -0.716305
v -0.369276 4.866655 -0.730165
v -0.407784 4.864047 -0.716305
v -0.427513 4.877198 -0.682845
v -0.416906 4.898404 -0.649385
v -0.382177 4.915242 -0.635525
v -0.343669 4.917850 -0.649385
v -0.323939 4.904699 -0.682845
v 0.100040 4.739598 -1.016987
v -0.285860 4.552496 -1.170989
v -0.713746 4.523520 -1.016987
v -0.932968 4.669644 -0.645191
v -0.815109 4.905271 -0.273395
v -0.429209 5.092373 -0.119392
v -0.001323 5.121348 -0.273395
v 0.217899 4.975224 -0.645191
v 0.343438 4.643151 -1.172642
v -0.235412 4.362498 -1.403646
v -0.877240 4.319035 -1.172642
v -1.206073 4.538221 -0.614948
v -1.029284 4.891660 -0.057254
v -0.450435 5.172313 0.173750
v 0.191394 5.215777 -0.057254
v 0.520227 4.996590 -0.614948
v 0.464766 4.537762 -1.204154
v -0.196782 4.217013 -1.468161
v -0.930307 4.167340 -1.204154
v -1.306118 4.417841 -0.566784
v -1.104073 4.821775 0.070585
v -0.442525 5.142524 0.334593
v 0.291000 5.192197 0.070586
v 0.666812 4.941696 -0.566784
v 0.453933 4.578562 -1.226577
v -0.207616 4.257814 -1.490584
v -0.941140 4.208140 -1.226577
v -1.316952 4.458641 -0.589207
v -1.114906 4.862575 0.048162
v -0.453358 5.183324 0.312170
v 0.280166 5.232997 0.048162
v 0.655978 4.982496 -0.589207
v 0.332605 4.683952 -1.195065
v -0.246245 4.403299 -1.426069
v -0.888074 4.359836 -1.195065
v -1.216906 4.579022 -0.637372
v -1.040118 4.932461 -0.079678
v -0.461268 5.213114 0.151326
v 0.180560 5.256577 -0.079678
v 0.509393 5.037391 -0.637372
v 0.089206 4.780398 -1.039410
v -0.296693 4.593296 -1.193413
v -0.724579 4.564321 -1.039410
v -0.943801 4.710445 -0.667614
v -0.825942 4.946071 -0.295818
v -0.440042 5.133173 -0.141815
v -0.012157 5.162149 -0.295818
v 0.207065 5.016025 -0.667614
v -0.349710 4.940601 -0.747691
v -0.384439 4.923763 -0.761550
v -0.422947 4.921155 -0.747691
v -0.442677 4.934306 -0.714230
v -0.432070 4.955511 -0.680770
v -0.397340 4.972350 -0.666910
v -0.358832 4.974957 -0.680770
v -0.339103 4.961807 -0.714230
v -0.390890 4.948056 -0.714230
v 0.110165 3.208633 0.204168
v 0.075435 3.191794 0.190308
v 0.068985 3.216088 0.237628
v 0.036927 3.189186 0.204168
v 0.017198 3.202337 0.237628
v 0.027805 3.223543 0.271089
v 0.062535 3.240381 0.284948
v 0.101043 3.242989 0.271089
v 0.120772 3.229838 0.237628
vt 0.527621 0.128629
vt 0.500000 0.117188
vt 0.472379 0.128629
vt 0.460938 0.156250
vt 0.472379 0.183871
vt 0.500000 0.195312
vt 0.527621 0.183871
vt 0.539062 0.156250
vt 0.555243 0.101007
vt 0.500000 0.078125
vt 0.444757 0.101007
vt 0.421875 0.156250
vt 0.444757 0.211493
vt 0.500000 0.234375
vt 0.555243 0.211493
vt 0.578125 0.156250
vt 0.582864 0.073386
vt 0.500000 0.039063
vt 0.417136 0.073386
vt 0.382812 0.156250
vt 0.417136 0.239114
vt 0.500000 0.273438
vt 0.582864 0.239114
vt 0.617188 0.156250
vt 0.610485 0.045765
vt 0.500000 0.000000
vt 0.389515 0.045765
vt 0.343750 0.156250
vt 0.389515 0.266735
vt 0.500000 0.312500
vt 0.610485 0.266735
vt 0.656250 0.156250
vt 0.375000 0.312500
vt 0.406250 0.312500
vt 0.437500 0.312500
vt 0.468750 0.312500
vt 0.500000 0.312500
vt 0.531250 0.312500
vt 0.562500 0.312500
vt 0.593750 0.312500
vt 0.625000 0.312500
vt 0.375000 0.688440
vt 0.406250 0.688440
vt 0.437500 0.688440
vt 0.468750 0.688440
vt 0.500000 0.688440
vt 0.531250 0.688440
vt 0.562500 0.688440
vt 0.593750 0.688440
vt 0.625000 0.688440
vt 0.610485 0.733265
vt 0.500000 0.687500
vt 0.389515 0.733265
vt 0.343750 0.843750
vt 0.389515 0.954235
vt 0.500000 1.000000
vt 0.610485 0.954235
vt 0.656250 0.843750
vt 0.582864 0.760886
vt 0.500000 0.726562
vt 0.417136 0.760886
vt 0.382812 0.843750
vt 0.417136 0.926614
vt 0.500000 0.960938
vt 0.582864 0.926614
vt 0.617188 0.843750
vt 0.555243 0.788507
vt 0.500000 0.765625
vt 0.444757 0.788507
vt 0.421875 0.843750
vt 0.444757 0.898993
vt 0.500000 0.921875
vt 0.555243 0.898993
vt 0.578125 0.843750
vt 0.527621 0.816129
vt 0.500000 0.804688
vt 0.472379 0.816129
vt 0.460938 0.843750
vt 0.472379 0.871371
vt 0.500000 0.882812
vt 0.527621 0.871371
vt 0.539062 0.843750
vt 0.500000 0.150000
vt 0.500000 0.837500
vt 0.500000 0.117188
vt 0.527621 0.128629
vt 0.472379 0.128629
vt 0.460938 0.156250
vt 0.472379 0.183871
vt 0.500000 0.195312
vt 0.527621 0.183871
vt 0.539062 0.156250
vn 0.111559 -0.823959 0.555559
vn 0.206550 -0.777903 0.593467
vn 0.200520 -0.755194 0.624078
vn 0.080863 -0.813210 0.576325
vn 0.311876 -0.770771 0.555559
vn 0.333196 -0.746210 0.576326
vn 0.365839 -0.806740 0.464039
vn 0.401171 -0.791519 0.461042
vn 0.336827 -0.864741 0.372520
vn 0.364626 -0.864580 0.345758
vn 0.241836 -0.910797 0.334611
vn 0.244969 -0.922596 0.298005
vn 0.136510 -0.917929 0.372520
vn 0.112293 -0.931580 0.345758
vn 0.082547 -0.881960 0.464039
vn 0.044318 -0.886271 0.461042
vn 0.160308 -0.603749 0.780890
vn -0.096756 -0.728385 0.678302
vn 0.445340 -0.584447 0.678302
vn 0.591373 -0.681786 0.430634
vn 0.512862 -0.838747 0.182965
vn 0.255799 -0.963383 0.080378
vn -0.029233 -0.982685 0.182965
vn -0.175266 -0.885345 0.430634
vn 0.101096 -0.380744 0.919137
vn -0.305260 -0.577764 0.756971
vn 0.551663 -0.350233 0.756971
vn 0.782505 -0.504102 0.365467
vn 0.658399 -0.752219 -0.026036
vn 0.252043 -0.949239 -0.188202
vn -0.198524 -0.979750 -0.026036
vn -0.429366 -0.825880 0.365467
vn 0.481089 -0.320674 -0.815918
vn 0.481089 -0.320674 -0.815918
vn 0.481089 -0.320674 -0.815918
vn 0.481089 -0.320674 -0.815918
vn -0.258645 -0.517089 -0.815918
vn -0.258645 -0.517089 -0.815918
vn -0.258645 -0.517089 -0.815918
vn -0.258645 -0.517089 -0.815918
vn -0.846869 -0.410601 -0.337964
vn -0.846869 -0.410601 -0.337964
vn -0.846869 -0.410601 -0.337964
vn -0.846869 -0.410601 -0.337964
vn -0.939009 -0.063588 0.337964
vn -0.939009 -0.063588 0.337964
vn -0.939009 -0.063588 0.337964
vn -0.939009 -0.063588 0.337964
vn -0.481090 0.320674 0.815917
vn -0.481090 0.320674 0.815917
vn -0.481090 0.320674 0.815917
vn -0.481090 0.320674 0.815917
vn 0.258646 0.517089 0.815917
vn 0.258646 0.517089 0.815917
vn 0.258646 0.517089 0.815917
vn 0.258646 0.517089 0.815917
vn 0.846869 0.410601 0.337964
vn 0.846869 0.410601 0.337964
vn 0.846869 0.410601 0.337964
vn 0.846869 0.410601 0.337964
vn 0.939008 0.063588 -0.337964
vn 0.939008 0.063588 -0.337964
vn 0.939008 0.063588 -0.337964
vn 0.939008 0.063588 -0.337964
vn 0.305262 0.577762 -0.756972
vn -0.101095 0.380742 -0.919138
vn -0.160308 0.603749 -0.780890
vn 0.096756 0.728385 -0.678302
vn -0.551664 0.350230 -0.756972
vn -0.445341 0.584447 -0.678302
vn -0.782507 0.504101 -0.365466
vn -0.591374 0.681786 -0.430634
vn -0.658400 0.752218 0.026038
vn -0.512863 0.838747 -0.182965
vn -0.252043 0.949238 0.188205
vn -0.255799 0.963383 -0.080377
vn 0.198525 0.979750 0.026038
vn 0.029234 0.982685 -0.182965
vn 0.429369 0.825880 -0.365467
vn 0.175267 0.885345 -0.430633
vn -0.198229 0.746565 -0.635096
vn -0.069550 0.808954 -0.583743
vn -0.340908 0.736903 -0.583743
vn -0.414008 0.785628 -0.459767
vn -0.374708 0.864198 -0.335791
vn -0.246029 0.926588 -0.284439
vn -0.103350 0.936249 -0.335791
vn -0.030250 0.887524 -0.459767
vn -0.201368 0.758386 -0.619920
vn -0.085095 0.814761 -0.573519
vn -0.330292 0.749656 -0.573518
vn -0.396344 0.793684 -0.461495
vn -0.360833 0.864679 -0.349471
vn -0.244559 0.921054 -0.303070
vn -0.115636 0.929784 -0.349471
vn -0.049583 0.885756 -0.461495
vn 0.226640 -0.853566 0.469104
vn 0.226640 -0.853566 0.469104
vn 0.226640 -0.853567 0.469104
vn 0.226640 -0.853566 0.469104
vn 0.226640 -0.853566 0.469104
vn 0.226640 -0.853566 0.469104
vn 0.226640 -0.853566 0.469104
vn 0.226641 -0.853568 0.469101
vn 0.226641 -0.853568 0.469101
vn -0.226640 0.853566 -0.469104
vn 0.481089 -0.320674 -0.815918
vn 0.481089 -0.320674 -0.815918
vn 0.481089 -0.320674 -0.815918
vn 0.481089 -0.320674 -0.815918
vn -0.258645 -0.517089 -0.815918
vn -0.258645 -0.517089 -0.815918
vn -0.258645 -0.517089 -0.815918
vn -0.258645 -0.517089 -0.815918
vn -0.846869 -0.410601 -0.337964
vn -0.846869 -0.410601 -0.337964
vn -0.846869 -0.410601 -0.337964
vn -0.846869 -0.410601 -0.337964
vn -0.939009 -0.063588 0.337964
vn -0.939009 -0.063588 0.337964
vn -0.939009 -0.063588 0.337964
vn -0.939009 -0.063588 0.337964
vn -0.481089 0.320674 0.815917
vn -0.481089 0.320674 0.815917
vn -0.481089 0.320674 0.815917
vn -0.481089 0.320674 0.815917
vn 0.258645 0.517089 0.815918
vn 0.258645 0.517089 0.815918
vn 0.258645 0.517089 0.815918
vn 0.258645 0.517089 0.815918
vn 0.846869 0.410601 0.337964
vn 0.846869 0.410601 0.337964
vn 0.846869 0.410601 0.337964
vn 0.846869 0.410601 0.337964
vn 0.939009 0.063588 -0.337964
vn 0.939009 0.063588 -0.337964
vn 0.939009 0.063588 -0.337964
vn 0.939009 0.063588 -0.337964
s 1
g umbrella fancyCup1
usemtl lambert4SG
f 1/1/1 2/2/2 10/10/3 9/9/4
f 2/2/2 3/3/5 11/11/6 10/10/3
f 3/3/5 4/4/7 12/12/8 11/11/6
f 4/4/7 5/5/9 13/13/10 12/12/8
f 5/5/9 6/6/11 14/14/12 13/13/10
f 6/6/11 7/7/13 15/15/14 14/14/12
f 7/7/13 8/8/15 16/16/16 15/15/14
f 8/8/15 1/1/1 9/9/4 16/16/16
f 9/9/4 10/10/3 18/18/17 17/17/18
f 10/10/3 11/11/6 19/19/19 18/18/17
f 11/11/6 12/12/8 20/20/20 19/19/19
f 12/12/8 13/13/10 21/21/21 20/20/20
f 13/13/10 14/14/12 22/22/22 21/21/21
f 14/14/12 15/15/14 23/23/23 22/22/22
f 15/15/14 16/16/16 24/24/24 23/23/23
f 16/16/16 9/9/4 17/17/18 24/24/24
f 17/17/18 18/18/17 26/26/25 25/25/26
f 18/18/17 19/19/19 27/27/27 26/26/25
f 19/19/19 20/20/20 28/28/28 27/27/27
f 20/20/20 21/21/21 29/29/29 28/28/28
f 21/21/21 22/22/22 30/30/30 29/29/29
f 22/22/22 23/23/23 31/31/31 30/30/30
f 23/23/23 24/24/24 32/32/32 31/31/31
f 24/24/24 17/17/18 25/25/26 32/32/32
s off
f 25/33/33 26/34/34 34/43/35 33/42/36
f 26/34/37 27/35/38 35/44/39 34/43/40
f 27/35/41 28/36/42 36/45/43 35/44/44
f 28/36/45 29/37/46 37/46/47 36/45/48
f 29/37/49 30/38/50 38/47/51 37/46/52
f 30/38/53 31/39/54 39/48/55 38/47/56
f 31/39/57 32/40/58 40/49/59 39/48/60
f 32/40/61 25/41/62 33/50/63 40/49/64
s 2
f 33/57/65 34/56/66 42/64/67 41/65/68
f 34/56/66 35/55/69 43/63/70 42/64/67
f 35/55/69 36/54/71 44/62/72 43/63/70
f 36/54/71 37/53/73 45/61/74 44/62/72
f 37/53/73 38/52/75 46/60/76 45/61/74
f 38/52/75 39/51/77 47/59/78 46/60/76
f 39/51/77 40/58/79 48/66/80 47/59/78
f 40/58/79 33/57/65 41/65/68 48/66/80
f 41/65/68 42/64/67 50/72/81 49/73/82
f 42/64/67 43/63/70 51/71/83 50/72/81
f 43/63/70 44/62/72 52/70/84 51/71/83
f 44/62/72 45/61/74 53/69/85 52/70/84
f 45/61/74 46/60/76 54/68/86 53/69/85
f 46/60/76 47/59/78 55/67/87 54/68/86
f 47/59/78 48/66/80 56/74/88 55/67/87
f 48/66/80 41/65/68 49/73/82 56/74/88
f 49/73/82 50/72/81 58/80/89 57/81/90
f 50/72/81 51/71/83 59/79/91 58/80/89
f 51/71/83 52/70/84 60/78/92 59/79/91
f 52/70/84 53/69/85 61/77/93 60/78/92
f 53/69/85 54/68/86 62/76/94 61/77/93
f 54/68/86 55/67/87 63/75/95 62/76/94
f 55/67/87 56/74/88 64/82/96 63/75/95
f 56/74/88 49/73/82 57/81/90 64/82/96
s 3
f 67/85/97 66/86/98 68/83/99
f 69/87/100 67/85/97 68/83/99
f 70/88/101 69/87/100 68/83/99
f 71/89/102 70/88/101 68/83/99
f 72/90/103 71/89/102 68/83/99
f 73/91/104 72/90/103 68/83/99
f 74/92/105 73/91/104 68/83/99
f 66/86/98 74/92/105 68/83/99
s 2
f 57/81/90 58/80/89 65/84/106
f 58/80/89 59/79/91 65/84/106
f 59/79/91 60/78/92 65/84/106
f 60/78/92 61/77/93 65/84/106
f 61/77/93 62/76/94 65/84/106
f 62/76/94 63/75/95 65/84/106
f 63/75/95 64/82/96 65/84/106
f 64/82/96 57/81/90 65/84/106
s off
f 2/2/107 1/1/108 66/86/109 67/85/110
f 3/3/111 2/2/112 67/85/113 69/87/114
f 4/4/115 3/3/116 69/87/117 70/88/118
f 5/5/119 4/4/120 70/88/121 71/89/122
f 6/6/123 5/5/124 71/89/125 72/90/126
f 7/7/127 6/6/128 72/90/129 73/91/130
f 8/8/131 7/7/132 73/91/133 74/92/134
f 1/1/135 8/8/136 74/92/137 66/86/138
